# xmcd
#
# Track frame offsets: 
#        187
#        11805
#        22067
#        35922
#        49602
#        70237
#        81290
#        96700
#        106612
#        119362
#
# Disc length: 1747 seconds
#
# Revision: 0
# Processed by: cddbd v1.5.2PL0 Copyright (c) Steve Scherf et al.
# Submitted via: ExactAudioCopy v0.99pb4
#
DISCID=8806d10a
DTITLE=Various Artist - Supermusic - Natal
DYEAR=1996
DGENRE=Natal
TTITLE0=Santa Claus is Comming to Town - Frank Sinatra
TTITLE1=Sleigh Bells - Gene Autrey
TTITLE2=White Christmas - Bing Crosby
TTITLE3=Silver Bells - Bing Crosby and R. Clooney
TTITLE4=The Christmas Song - Glen Campbell
TTITLE5=Come Home to Christmas - The Platters
TTITLE6=We Wish you a Merry Christmas - The Drifters
TTITLE7=Mrs. Santa Claus - NAt King Cole
TTITLE8=Zat you Santa Clauss - Louis Amstrong
TTITLE9=Merry Christmas All - Brook Benton
EXTD=
EXTT0=
EXTT1=
EXTT2=
EXTT3=
EXTT4=
EXTT5=
EXTT6=
EXTT7=
EXTT8=
EXTT9=
PLAYORDER=
